<svg xmlns:xlink="http://www.w3.org/1999/xlink"  viewBox="0 0 1080 122.07" version="1.1" xmlns="http://www.w3.org/2000/svg" id="Layer_1">
  
  <defs>
    <style>
      .st0 {
        fill: #b43b33;
      }
    </style>
  </defs>
  <path d="M49.93,21.12h-24.21l-.5,36.4h25.38c10.69,0,19.87-5.01,19.87-17.7s-7.51-18.7-20.54-18.7M53.6,93.43l-11.52-17.37h-16.7l.5,41.91c0,.83-.67,1.5-1.5,1.5H1.5c-.83,0-1.5-.67-1.5-1.5l.67-56.94L0,4.09c0-.83.67-1.5,1.5-1.5h47.42c29.22,0,46.09,12.36,46.09,36.74,0,17.2-9.52,29.06-26.05,34.06l29.06,44.75c.33.67,0,1.34-.67,1.34h-26.55c-.84,0-1.84-.5-2.34-1.34l-14.86-24.71Z" class="st0"></path>
  <path d="M107.16,119.48c-.83,0-1.5-.67-1.5-1.5l.84-56.94-.84-56.94c0-.83.67-1.5,1.5-1.5h78.82c.83,0,1.5.67,1.5,1.5v15.86c0,.83-.67,1.5-1.5,1.5h-54.44l-.67,26.89h50.26c.83,0,1.5.67,1.5,1.5v15.86c0,.83-.67,1.5-1.5,1.5h-50.26l.67,33.4h55.77c.83,0,1.5.67,1.5,1.5v15.86c0,.83-.67,1.5-1.5,1.5h-80.15Z" class="st0"></path>
  <path d="M288.46,117.98c0,.83-.67,1.5-1.5,1.5h-89.5c-.83,0-1.5-.67-1.5-1.5v-17.7c0-.83.33-2,1-2.67l60.78-76.15h-55.77c-.84,0-1.5-.67-1.5-1.5V4.09c0-.83.67-1.5,1.5-1.5h84.83c.84,0,1.5.67,1.5,1.5v18.37c0,.83-.34,2-1,2.67l-59.95,75.48h59.61c.83,0,1.5.67,1.5,1.5v15.86Z" class="st0"></path>
  <path d="M299.77,119.48c-.83,0-1.5-.67-1.5-1.5l.83-56.94-.83-56.94c0-.83.67-1.5,1.5-1.5h78.82c.83,0,1.5.67,1.5,1.5v15.86c0,.83-.67,1.5-1.5,1.5h-54.44l-.67,26.89h50.26c.83,0,1.5.67,1.5,1.5v15.86c0,.83-.67,1.5-1.5,1.5h-50.26l.67,33.4h55.77c.84,0,1.5.67,1.5,1.5v15.86c0,.83-.67,1.5-1.5,1.5h-80.15Z" class="st0"></path>
  <path d="M422.12,119.48c-.83,0-1.5-.67-1.5-1.5l1-56.94-.67-39.58h-32.4c-.83,0-1.5-.67-1.5-1.5V4.09c0-.83.67-1.5,1.5-1.5h90.51c.83,0,1.5.67,1.5,1.5v15.86c0,.83-.67,1.5-1.5,1.5h-32.23l-.67,39.58,1,56.94c0,.83-.67,1.5-1.5,1.5h-23.55Z" class="st0"></path>
  <path d="M622.45,122.07c-30.73,0-51.77-12.86-52.93-40.58,0-.83.67-1.5,1.5-1.5h23.55c.83,0,1.5.67,1.67,1.5,1.67,13.02,7.51,21.54,26.72,21.54,15.19,0,23.54-4.51,23.54-15.53,0-26.38-74.64-5.51-74.64-51.93C571.85,13.69,588.88,0,618.78,0c27.39,0,46.25,10.52,49.76,35.57,0,.84-.5,1.5-1.34,1.5h-23.71c-.83,0-1.5-.67-1.67-1.5-1.34-10.52-9.85-16.36-24.05-16.36-12.02,0-20.71,4.17-20.71,13.86,0,24.88,74.98,4.68,74.98,50.93,0,24.71-19.04,38.07-49.59,38.07" class="st0"></path>
  <path d="M708.54,119.4c-.83,0-1.5-.67-1.5-1.5l1-56.94-.67-39.58h-32.4c-.83,0-1.5-.67-1.5-1.5V4.01c0-.83.67-1.5,1.5-1.5h90.51c.83,0,1.5.67,1.5,1.5v15.86c0,.83-.67,1.5-1.5,1.5h-32.23l-.67,39.58,1,56.94c0,.83-.67,1.5-1.5,1.5h-23.55Z" class="st0"></path>
  <path d="M822.43,102.36c21.04,0,32.73-15.53,32.73-41.08s-11.52-41.75-32.9-41.75-32.73,15.7-32.73,41.75,11.86,41.08,32.9,41.08M822.27,121.9c-35.74,0-58.95-24.88-58.95-60.62S786.36,0,822.27,0s59.11,23.55,59.11,61.28c0,35.73-23.38,60.62-59.11,60.62" class="st0"></path>
  <path d="M941.11,21.04h-24.21l-.5,36.4h25.38c10.69,0,19.87-5.01,19.87-17.7s-7.51-18.7-20.54-18.7M944.79,93.35l-11.52-17.37h-16.7l.5,41.91c0,.83-.67,1.5-1.5,1.5h-22.88c-.83,0-1.5-.67-1.5-1.5l.67-56.94-.67-56.94c0-.83.67-1.5,1.5-1.5h47.42c29.22,0,46.09,12.36,46.09,36.74,0,17.2-9.52,29.06-26.05,34.06l29.06,44.75c.33.67,0,1.34-.67,1.34h-26.55c-.84,0-1.84-.5-2.34-1.34l-14.86-24.71Z" class="st0"></path>
  <path d="M998.34,119.4c-.83,0-1.5-.67-1.5-1.5l.84-56.94-.84-56.94c0-.83.67-1.5,1.5-1.5h78.82c.83,0,1.5.67,1.5,1.5v15.86c0,.83-.67,1.5-1.5,1.5h-54.44l-.67,26.89h50.26c.83,0,1.5.67,1.5,1.5v15.86c0,.83-.67,1.5-1.5,1.5h-50.26l.67,33.4h55.77c.83,0,1.5.67,1.5,1.5v15.86c0,.83-.67,1.5-1.5,1.5h-80.15Z" class="st0"></path>
</svg>